<?xml version="1.0" standalone="no"?>
<!DOCTYPE svg PUBLIC "-//W3C//DTD SVG 1.1//EN" "http://www.w3.org/Graphics/SVG/1.1/DTD/svg11.dtd" >
<svg xmlns="http://www.w3.org/2000/svg">
<metadata>
Created by FontForge 20120731 at Wed Apr 26 16:48:05 2017
 By admin
</metadata>
<defs>
<font id="iconfont" horiz-adv-x="1024" >
  <font-face 
    font-family="iconfont"
    font-weight="500"
    font-stretch="normal"
    units-per-em="1024"
    panose-1="2 0 6 3 0 0 0 0 0 0"
    ascent="896"
    descent="-128"
    x-height="792"
    bbox="0 -212 1160 896"
    underline-thickness="0"
    underline-position="0"
    unicode-range="U+0078-F0012"
  />
<missing-glyph 
 />
    <glyph glyph-name=".notdef" 
 />
    <glyph glyph-name=".null" horiz-adv-x="0" 
 />
    <glyph glyph-name="nonmarkingreturn" horiz-adv-x="341" 
 />
    <glyph glyph-name="x" unicode="x" horiz-adv-x="1001" 
d="M281 543q-27 -1 -53 -1h-83q-18 0 -36.5 -6t-32.5 -18.5t-23 -32t-9 -45.5v-76h912v41q0 16 -0.5 30t-0.5 18q0 13 -5 29t-17 29.5t-31.5 22.5t-49.5 9h-133v-97h-438v97zM955 310v-52q0 -23 0.5 -52t0.5 -58t-10.5 -47.5t-26 -30t-33 -16t-31.5 -4.5q-14 -1 -29.5 -0.5
t-29.5 0.5h-32l-45 128h-439l-44 -128h-29h-34q-20 0 -45 1q-25 0 -41 9.5t-25.5 23t-13.5 29.5t-4 30v167h911zM163 247q-12 0 -21 -8.5t-9 -21.5t9 -21.5t21 -8.5q13 0 22 8.5t9 21.5t-9 21.5t-22 8.5zM316 123q-8 -26 -14 -48q-5 -19 -10.5 -37t-7.5 -25t-3 -15t1 -14.5
t9.5 -10.5t21.5 -4h37h67h81h80h64h36q23 0 34 12t2 38q-5 13 -9.5 30.5t-9.5 34.5q-5 19 -11 39h-368zM336 498v228q0 11 2.5 23t10 21.5t20.5 15.5t34 6h188q31 0 51.5 -14.5t20.5 -52.5v-227h-327z" />
    <glyph glyph-name="fujin" unicode="&#xf000e;" 
d="M563 107q129 224 154 287q9 22 15 41.5t9.5 32t5 25.5t1.5 18.5t-0.5 16t-0.5 12.5q0 100 -74 172.5t-170.5 72.5t-170.5 -72.5t-74 -172.5q0 -2 -0.5 -12.5t-0.5 -16t2 -18.5t5 -25.5t9 -32t15 -41.5q25 -63 154 -287q-82 -6 -148 -23.5t-104 -44t-38 -57.5
q0 -26 28.5 -54t74.5 -51t112 -38t136 -15t136 15t112.5 38t74.5 51t28 54q0 47 -83 82t-208 43zM398 536.5q0 44.5 31 75.5t74.5 31t74 -31t30.5 -75.5t-30.5 -76t-74.5 -31.5t-74.5 31.5t-30.5 76zM503 -81q-109 0 -186 27.5t-77 67.5q0 33 57 58.5t145 33.5
q34 -60 61 -104v0q26 44 60 104q88 -7 145.5 -33t57.5 -59q0 -40 -77 -67.5t-186 -27.5z" />
    <glyph glyph-name="shezhi" unicode="&#xf0012;" 
d="M960 204l-122 -40l56 -111l-134 -134l-111 56l-39 -123h-190l-39 123l-111 -56l-134 134l55 111l-126 40v190l126 39l-55 111l134 135l111 -56l39 125h190l39 -125l111 56l134 -135l-56 -111l122 -39v-190zM515.5 541q-98.5 0 -168 -70t-69.5 -169t69.5 -168.5t168 -69.5
t168 69.5t69.5 168.5t-69.5 169t-168 70zM515.5 195q-44.5 0 -75.5 31.5t-31 75.5t31 75.5t75.5 31.5t75.5 -31.5t31 -75.5t-31 -75.5t-75.5 -31.5z" />
    <glyph glyph-name="erweima" unicode="&#xe601;" 
d="M32 812h410q12 -1 19.5 -8.5t10 -24t3.5 -27.5t0 -34.5t-1 -29.5v-224q0 -8 1 -29t0.5 -32t-2.5 -25.5t-7.5 -23t-15 -12.5t-28.5 -4.5t-45 0.5t-32 1h-218q-9 0 -31.5 -1t-34 -0.5t-27 3t-24 10t-10.5 19.5v411q9 24 32 31v0zM88 720v-293h296v297h-294q-2 -1 -2 -4v0z
M583 812h411q26 -10 31 -37v-399q-6 -29 -29 -35q-12 -4 -29.5 -4t-41 1t-32.5 1h-211q-9 0 -33 -1.5t-42 -1t-30 4.5q-10 3 -16.5 12t-8.5 25t-2 28t0.5 34.5t0.5 30.5v209q0 10 -1 34t-0.5 36t3 27.5t10 24t20.5 10.5v0zM639 720v-293h297v297h-295q-2 -1 -2 -4v0z
M223 634q31 6 52.5 -11.5t22.5 -45.5q0 -36 -30 -53.5t-60 -2.5q-22 12 -29 37t5 48t39 28v0zM774 634q50 9 68 -32q14 -35 -8 -65q-20 -28 -60 -21q-29 5 -40.5 31.5t0 54t40.5 32.5v0zM440 -212h-407q-26 7 -33 32v409q8 25 28 30q12 3 29 3.5t40.5 -1t33.5 -1.5h211
q9 0 32.5 1.5t41.5 1.5t30 -4q11 -3 18 -12t9 -25t2.5 -28t-0.5 -34t-1 -30v-216q0 -9 0.5 -23.5t0.5 -24v-22.5t-2.5 -21.5t-6 -17t-10.5 -12.5t-16 -5v0zM88 168v-292h296v296h-294q-2 0 -2 -4v0zM1025 224v-114q-2 -10 -1.5 -61.5t0.5 -62.5h-294v66q-6 2 -44 2h-47
q-2 -23 -1.5 -132.5t0.5 -133.5h-54q-13 2 -21 10.5t-10.5 24.5t-3 28t0.5 35.5t1 32.5v211q0 9 -1.5 33t-1 42t4.5 30q2 6 5.5 10.5t9.5 7.5t11 4.5t15 2t15 1t17.5 0t17.5 -0.5h199v-180h93q0 16 -0.5 91t1.5 89q23 1 42 0.5t32 -9.5t14 -27v0zM230 84q34 3 55 -23t9 -60
q-7 -18 -23.5 -28t-34.5 -8.5t-33.5 9.5t-23 26.5t-1.5 41.5q10 37 52 42v0zM830 -212h-100q1 9 0.5 53.5t1.5 52.5h98v-106v0zM1025 -106v-70q-5 -28 -33 -36h-70q0 9 -0.5 53.5t1.5 52.5h102v0zM1025 -106z" />
    <glyph glyph-name="fangdajing" unicode="&#xe634;" 
d="M850 -1l1 1l-198 193q60 71 63 161q3 53 -17 105t-57 91q-67 71 -165 83q-18 3 -37 3q-95 0 -168 -56q-41 -31 -68 -75t-36 -93q-17 -97 33 -181q34 -57 90 -93q52 -32 113 -40q18 -2 36 -2q88 0 158 48l198 -193l4 -3v0q10 -8 23 -8q15 0 26 10.5t11 24.5t-10 24v0z
M650 263q-24 -48 -70 -81.5t-100 -41.5q-52 -9 -103 5q-49 13 -88.5 45.5t-60.5 77.5q-24 50 -21.5 108.5t32.5 105.5q26 44 69 73t94 37h5q5 1 8 1q12 2 25 2q53 0 99 -21q41 -19 72.5 -52t47.5 -74q18 -45 15.5 -93.5t-24.5 -91.5z" />
    <glyph glyph-name="lianxiren" unicode="&#xe61c;" 
d="M663 324q54 37 85.5 94.5t31.5 124.5q0 110 -81 189t-195 79t-195 -79t-81 -189q0 -69 33.5 -128t89.5 -95q-104 -46 -168.5 -140t-64.5 -209q0 -48 35.5 -84.5t94 -57t125.5 -30.5t139 -10t139 10t125.5 30.5t94 57t35.5 84.5q0 117 -67 213t-176 140zM307 542.5
q0 78.5 58 134t139.5 55.5t139 -55.5t57.5 -134t-57.5 -134t-139 -55.5t-139.5 55.5t-58 134zM512 -132q-135 0 -225 32t-90 71q0 125 92.5 214t222.5 89t222.5 -89t92.5 -214q0 -39 -90 -71t-225 -32z" />
    <glyph glyph-name="xingxing" unicode="&#xe62d;" 
d="M868 328q-24 -27 -61 -67.5t-63 -68.5l-25 -27q15 -111 24 -188q3 -28 -15.5 -40t-44.5 0q-70 33 -184 88q-4 -2 -76 -35.5t-111 -51.5q-26 -12 -45 0t-16 40q9 76 25 188v0q-97 102 -151 163q-15 17 -6 36.5t37 23.5l198 35v0q66 114 107 184q24 44 42 36q15 -5 33 -36
l106 -184q119 -22 195 -36q28 -4 37 -23.5t-6 -36.5v0z" />
    <glyph glyph-name="kongjian" unicode="&#xe669;" 
d="M668 431q-12 28 -29 69t-27.5 66.5t-24.5 57t-23 50t-18.5 36.5t-17 25.5t-12.5 7.5q-9 0 -21.5 -15.5t-30.5 -52.5t-31 -65t-38.5 -88t-36.5 -86q-41 -3 -101.5 -6.5t-91.5 -6t-65.5 -6t-50 -9t-17.5 -12.5q-4 -14 38.5 -54t145.5 -127q35 -31 54 -47
q-6 -30 -13.5 -69.5t-13 -66.5t-12.5 -61t-10 -52.5t-6.5 -41.5t-3 -29t1.5 -14q4 -4 22 2.5t58 28t71.5 39.5t97.5 56q35 20 53 31q31 -19 84 -51l79.5 -48t59 -33.5t49 -22.5t22.5 0q8 5 0 58t-30 172q-7 37 -10 56q-14 -2 -47.5 -7.5t-51 -8t-52 -5.5t-73.5 -3
q-61 -1 -122 3t-95.5 8.5t-34.5 7.5t67 44q6 4 24.5 16.5t45 31t57.5 40.5q14 11 39 29t44 32t33 24q-2 0 -41 2q-11 1 -77.5 6t-135.5 9.5t-110 5.5l106 15q85 9 162 10q63 1 122.5 -4t88 -10t28.5 -7t-35.5 -26t-56.5 -37q-1 0 -49 -31.5t-85 -59.5q-2 -1 -19 -13.5
t-33 -25t-24 -20.5q44 -8 155 -12q8 -1 168 -5q-4 22 -7 38q29 25 75.5 66t69 61t48 44.5t34 38t5.5 20.5q-2 6 -20 10t-52.5 7t-68.5 4.5t-89 4.5t-94 6z" />
    <glyph glyph-name="wenjian" unicode="&#xe63d;" 
d="M843 832h-667q-79 0 -104 -87l-7 -30v-676q0 -11 4 -21.5t10.5 -19t14.5 -16.5t17.5 -14t18.5 -11.5t17 -9t14.5 -6t10.5 -4l4 -1.5h495l287 283v505q0 24 -11.5 44.5t-28.5 31.5t-34 19t-29 10zM889 247q0 -15 -9.5 -24.5t-18.5 -10.5l-10 -2h-127q-18 0 -28.5 -8
t-11.5 -15l-1 -8v-126q0 -20 -5.5 -31.5t-11.5 -13.5l-5 -2h-469q-14 0 -25.5 4.5t-17 11t-9 13t-4.5 10.5l-1 5v649q0 25 14.5 42t28.5 21l14 4q580 -3 633 -3q24 0 40 -16t20 -32l4 -16v-452zM755 522q0 -14 -10.5 -24t-24.5 -10h-420q-14 0 -24 10t-10 24v0q0 15 10 25
t24 10h420q14 0 24.5 -10t10.5 -25v0zM681 346q0 -14 -10 -24t-24 -10h-348q-14 0 -23.5 10t-9.5 24v0q0 14 9.5 23.5t23.5 9.5h348q14 1 24 -9t10 -24v0z" />
    <glyph glyph-name="qianbao" unicode="&#xe68b;" 
d="M897 9v0q0 -38 -26.5 -64.5t-64.5 -26.5v0h-587v0q-38 0 -64.5 26.5t-26.5 64.5v550q0 30 21.5 51.5t51.5 21.5v0h296l65 33q21 7 32 -2l17 -31h140q30 0 51.5 -21.5t21.5 -51.5v-55v0q30 0 51.5 -21.5t21.5 -51.5v-422zM201 596v0q-14 0 -25.5 -19t-11.5 -36
q0 -16 11 -26.5t26 -10.5h27h-19h4v0v0l220 92h-232zM587 592l-19 36v0l-66 -32v0l-202 -92h331zM787 559q0 15 -10.5 26t-25.5 11h-126l45 -92h117v0v55zM824 467h-623v0q-19 0 -37 11v-469q0 -22 16.5 -38.5t38.5 -16.5h587q22 0 38.5 16.5t16.5 38.5v129h-74
q-30 0 -51.5 21.5t-21.5 51.5t21.5 51.5t51.5 21.5h74v147q0 15 -11 25.5t-26 10.5zM861 174v74h-74q-15 0 -25.5 -11t-10.5 -26t10.5 -26t25.5 -11h74v0zM787 229h37v-36h-37v36z" />
    <glyph glyph-name="shoucang" unicode="&#xe613;" 
d="M539 -181h-54q-6 1 -7 1q-62 9 -64 9q-174 38 -282 178q-77 100 -94 226q-1 7 -5 38v54q1 7 2 8q1 7 2 20t2.5 23.5t3.5 19.5q38 175 180 284q99 75 224 92q5 1 38 5h54q6 -1 7 -1q7 -1 18 -2.5t20.5 -2.5t17.5 -3q180 -36 291 -180q76 -99 93 -225q1 -7 5 -38v-54
q-1 -7 -2 -8q-8 -61 -8 -63q-38 -175 -180 -284q-99 -75 -224 -92l-21 -3t-17 -2zM512 491q-1 1 -11 10t-15 13q-56 48 -118 56q-76 10 -130 -39t-58 -122q-4 -71 49 -135q45 -54 194 -230q47 -55 66 -77q14 -14 23 -14t22 15q11 11 34 38q186 219 234 276q38 45 42.5 102.5
t-26.5 106.5q-56 90 -162 79q-48 -5 -96 -40q-6 -4 -48 -39zM511 428q38 39 41 42q45 42 89 57q41 14 80.5 -2t60.5 -55q45 -82 -7 -158q-11 -17 -60 -75q-30 -35 -63 -74t-74 -87t-63 -74q0 -1 -4 -5q-15 18 -44 52q-181 215 -203 241q-46 55 -44 113q1 45 28 80.5t68 46.5
q40 10 82 -10q55 -26 107 -86q1 -1 2.5 -3t1.5 -3h1.5h0.5z" />
    <glyph glyph-name="xiaoxi" unicode="&#xe638;" 
d="M757 896h-490q-110 0 -188.5 -78t-78.5 -189v-267q0 -110 78.5 -188.5t188.5 -78.5h134l-38 45h-96q-92 0 -157 65t-65 157v267q0 92 65 157.5t157 65.5h490q92 0 157 -65.5t65 -157.5v-267q0 -92 -65 -157t-157 -65h-141l-15 -45h156q110 0 188.5 78.5t78.5 188.5v267
q0 111 -78.5 189t-188.5 78zM289.5 540q18.5 0 31.5 -13t13 -31.5t-13 -31.5t-31.5 -13t-31.5 13t-13 31.5t13 31.5t31.5 13zM512 540q18 0 31 -13t13 -31.5t-13 -31.5t-31 -13t-31 13t-13 31.5t13 31.5t31 13zM734.5 540q18.5 0 31.5 -13t13 -31.5t-13 -31.5t-31.5 -13
t-31.5 13t-13 31.5t13 31.5t31.5 13zM616 140l-15 -45q-17 -50 -46 -86.5t-58.5 -53t-56.5 -26.5t-44 -11l-17 -1q34 83 32 141q-2 25 -15 49q-18 33 -33 33h-56q3 -2 8 -5t17 -15t20.5 -25.5t13 -36.5t0 -49t-23.5 -61.5t-52 -74.5q6 -1 17 -1.5t44.5 2.5t65 10.5t72 26.5
t73.5 46.5t62 74.5t44 108h-52z" />
    <glyph glyph-name="iconfont19" unicode="&#xe63b;" 
d="M958 102q0 -31 -22 -52.5t-52 -21.5h-744q-31 0 -52.5 22t-21.5 52v564q0 31 22 52.5t52 21.5h743q31 0 52.5 -21.5t21.5 -52.5v-564h1zM140 682q-6 0 -10.5 -4.5t-4.5 -10.5v-565q0 -6 4.5 -10.5t10.5 -4.5h743q6 0 10.5 4.5t4.5 10.5v564q0 6 -4.5 10.5t-10.5 4.5h-743
v1zM274 443q-37 0 -63 26t-26 63t26 63.5t63 26.5t63 -26t26 -63t-26 -63.5t-63 -26.5v0zM839 146h-654v90l149 149l74 -74l238 237l193 -194v-208h-1v0h1z" />
    <glyph glyph-name="1" unicode="&#xe600;" horiz-adv-x="1028" 
d="M580 515q19 -48 50 -81t65 -33t63 32.5t46 81.5q11 1 20.5 11t13.5 26q5 18 -0.5 34.5t-17.5 20.5q-3 55 -40 92.5t-88.5 37.5t-88.5 -37.5t-40 -92.5q-12 -4 -17.5 -20.5t-0.5 -34.5q4 -17 14 -27t21 -10zM217 515q19 -48 50 -81t64.5 -33t63 32.5t46.5 81.5
q11 1 20.5 11t13.5 26q5 18 -0.5 34.5t-17.5 20.5q-3 55 -40.5 92.5t-88.5 37.5t-88 -37.5t-40 -92.5q-13 -4 -18 -20.5t0 -34.5q4 -17 14 -27t21 -10zM931 301q-6 36 -35 66t-73 49l-104 -175l-12 79q14 8 14 25q0 12 -9 21t-21 9t-21 -9t-9 -21q0 -17 14 -25l-12 -77
l-103 173q-14 -6 -28 -14q51 -42 61 -96l1 -2l2 -283q51 -12 95 -12q94 0 163.5 11t77.5 27h1v254h-2v0zM460 416l-104 -175l-13 79q15 8 15 25q0 12 -9 21t-21.5 9t-21 -9t-8.5 -21q0 -17 14 -25l-12 -77l-104 173q-44 -19 -72.5 -49t-35.5 -66h-1v-254h1q8 -16 77 -27
t163 -11t163 11t78 27h1l-2 254q-7 36 -35.5 66t-72.5 49v0z" />
    <glyph glyph-name="xinpengyou" unicode="&#xe946;" 
d="M235 -43v320h-64v235q0 35 25 60t60 25h128q35 0 60 -25t25 -60v-235h-64v-320h-170zM768 -43v256h128l-108 326q-9 26 -31.5 42t-49.5 16h-6q-27 0 -49.5 -16t-31.5 -42l-108 -326h128v-256h128zM320 640q36 0 60.5 25t24.5 60.5t-24.5 60.5t-60.5 25t-60.5 -25
t-24.5 -60.5t24.5 -60.5t60.5 -25zM704 640q36 0 60.5 25t24.5 60.5t-24.5 60.5t-60.5 25t-60.5 -25t-24.5 -60.5t24.5 -60.5t60.5 -25z" />
    <glyph glyph-name="add" unicode="&#xe60e;" 
d="M1009 382q0 -38 -27 -65.5t-66 -27.5h-804q-38 0 -65 27.5t-27 65.5v0q0 38 27 65t65 27h804q39 0 66 -27t27 -65v0zM514 876q38 0 65.5 -27t27.5 -65v-804q0 -39 -27.5 -66t-65.5 -27v0q-38 0 -65 27t-27 66v804q0 38 27 65t65 27v0z" />
    <glyph glyph-name="yejian" unicode="&#xe653;" 
d="M938 309v0q-29 -152 -148 -252t-275 -100q-116 0 -215.5 58.5t-157 158.5t-57.5 218q0 146 87 260.5t222 155.5q6 3 14 3q14 0 24 -10.5t10 -24.5q-32 -82 -34 -159t22.5 -135.5t71.5 -102t108 -62.5t138 -11t156 46q15 0 25 -10t10 -25q0 -4 -1 -8z" />
    <glyph glyph-name="taiyang" unicode="&#xe6a3;" 
d="M991 308l-93 -93v-111q0 -44 -31 -75t-75 -31h-111l-93 -94q-31 -31 -76 -31t-77 31l-93 93h-110q-44 0 -75 31.5t-31 75.5v110l-93 94q-32 31 -32 76t32 77l93 94v108q0 44 31.5 75.5t75.5 31.5h108l94 94q32 32 77 32t76 -32l94 -94h110q44 0 75.5 -31t31.5 -75v-110
l92 -93q32 -32 32 -77t-32 -76zM512 671q-119 0 -203 -84t-84 -203t84 -203t203 -84t203 84t84 203t-84 203t-203 84zM512 172q-88 0 -150 62t-62 150t62 150t150 62t150 -62t62 -150t-62 -150t-150 -62z" />
    <glyph glyph-name="game" unicode="&#xe671;" horiz-adv-x="1025" 
d="M729 486h-433q-97 0 -165.5 -75t-68.5 -181t68.5 -181t165.5 -75h433q96 0 164.5 75t68.5 181t-68.5 181t-164.5 75v0zM374 196h-52v-51q0 -14 -10.5 -24t-24.5 -10t-24.5 10t-10.5 24v51h-51q-15 0 -25 10t-10 24t10 24t25 10h51v52q0 14 10.5 24t24.5 10t24.5 -10
t10.5 -24v-52h52q14 0 24 -10t10 -24t-10 -24t-24 -10v0zM651 196q-15 0 -25 10t-10 24t10 24t24.5 10t24.5 -10t10 -24t-10 -24t-24 -10v0zM737 111q-14 0 -24 10t-10 24t10 24t24.5 10t24.5 -10t10 -24t-10 -24t-25 -10v0zM737 282q-14 0 -24 10t-10 24t10 24t24.5 10
t24.5 -10t10 -24t-10 -24t-25 -10v0zM824 196q-15 0 -25 10t-10 24t10 24t24.5 10t24.5 -10t10 -24t-10 -24t-24 -10v0zM755 743v51h-70v-39q0 -28 -11.5 -42.5t-29.5 -18.5t-40.5 -4t-44.5 -2t-40.5 -9.5t-29.5 -30t-11 -59.5v-51h69q-3 33 4.5 53.5t22 26.5t33 8.5t39 0.5
t40 2.5t35 13.5t25 34.5t9.5 65.5v0z" />
    <glyph glyph-name="huangguan" unicode="&#xe603;" 
d="M250 6q-16 0 -27.5 11.5t-11.5 27.5t11.5 27.5t27.5 11.5h555q16 0 27.5 -11.5t11.5 -27.5t-11.5 -27.5t-27.5 -11.5h-555v0zM403 210v0l-182 177q-7 7 -7 16.5t7 16.5q21 22 22 53t-18 54q-22 27 -55 29q-33 3 -58.5 -18t-28.5 -54q-2 -29 14 -52.5t43 -32.5q22 -6 46 0
q9 3 17.5 -1.5t11.5 -13.5q23 -79 35 -125q12 -48 20 -99h515q7 46 20 99q15 58 35 125q3 9 11.5 13.5t17.5 1.5q23 -6 47 0q26 9 42 32.5t14 52.5q-3 33 -28.5 54t-59.5 18q-31 -2 -54 -29q-19 -23 -18 -54t22 -53q7 -7 7 -16.5t-7 -16.5l-181 -176q-9 -10 -23.5 -7
t-18.5 17l-79 305v2q-3 9 2 17.5t14 10.5q26 8 43 29q18 24 16 54t-23 51q-24 24 -57 24q-32 0 -56 -24q-21 -21 -23 -51t16 -54q16 -21 43 -29q9 -2 14 -10.5t3 -17.5l-80 -306q-2 -14 -16.5 -18t-24.5 6v0zM408 270v0l65 249q-26 13 -47 38q-28 38 -25 85.5t37 80.5
q36 37 89 37q54 0 90 -37q34 -33 37 -80.5t-26 -85.5q-20 -25 -46 -38l65 -249l139 136q-22 34 -20 76.5t28 74.5q34 41 86 45.5t92.5 -29t45.5 -85.5q5 -45 -20.5 -82.5t-68.5 -50.5q-23 -7 -50 -5q-19 -65 -28 -102q-16 -61 -23 -114q-1 -9 -7.5 -15t-15.5 -6v0h-555
q-10 0 -16.5 6.5t-6.5 16.5q-8 50 -22 112q-13 46 -29 102q-28 -2 -50 5q-43 13 -68 50.5t-22 82.5q6 52 46 85.5t93 28.5q52 -5 85 -45q27 -32 29.5 -74t-20.5 -77l139 -136v0z" />
    <glyph glyph-name="dongman" unicode="&#xe614;" horiz-adv-x="1040" 
d="M260 187q20 0 63.5 2t63.5 2q13 0 30.5 11t29.5 22q30 29 168 164.5t213 207.5q27 27 27 9q-1 -13 -13 -27l-344 -376q-11 -15 -18 -24q3 -17 5 -25q53 -44 175 -144q25 -21 60 -12.5t47 39.5q41 112 126 337.5t127 338.5q13 35 -10.5 51t-56.5 8q-150 -40 -420 -106
q-308 -80 -463 -117q-17 -4 -25 -6.5t-19.5 -10t-17.5 -18.5q-8 -12 -8 -20.5t10 -17.5q6 -4 25.5 -21t28.5 -24t28 -20.5t32 -18.5t30.5 -10t34 -3t32.5 10q98 49 279 138t233 115q18 9 27 1q8 -8 -8 -17q-101 -54 -285 -154.5t-232 -126.5q-31 -17 -30 -45q1 -14 10 -33.5
t26 -47t19 -31.5z" />
    <glyph glyph-name="buluochengyuan" unicode="&#xe7e6;" 
d="M526 28q-16 0 -23 6v10v32q0 19 -3 29q0 9 -6 28q-13 59 -42.5 95.5t-69.5 36.5q-53 0 -94.5 -61.5t-46.5 -150.5q-93 0 -208 -9q4 99 22.5 179t41.5 125q60 120 158 179t200 35q100 -21 154 -205q3 4 14 9t15 7q-35 111 -93 173q62 -19 124 -56t106 -91h42
q-34 48 -81 85.5t-95 59.5t-90.5 34t-79.5 16q-8 56 -3 109q82 -29 157.5 -22.5t92.5 45.5q6 22 -5.5 45.5t-30.5 40.5t-44.5 33t-40 23.5t-23.5 10.5q-39 16 -64 3q-17 -8 -36 -38.5t-28 -69.5q-6 -24 -9 -49t-4 -47.5t-1 -38t0.5 -30t0.5 -15.5q-109 15 -208.5 -48
t-159.5 -185q-54 -152 -61 -333q0 -7 6 -13q8 -8 13 -3l11 0.5t29.5 2t43 3t54.5 2.5t61 2t65.5 1t65.5 -2q79 -3 186 -28q-6 5 -13 35zM507 802q6 15 9 21.5t10.5 13.5t18.5 10q21 5 87 -36.5t63 -65.5q-1 -8 -4 -14t-9 -9.5t-11 -5.5t-15.5 -3t-16 -1t-18.5 0.5t-18 0.5
q-24 1 -51 7t-43.5 11t-17.5 7q-2 2 -2.5 5t0.5 7.5t2 8.5t3 10.5t4 10.5t4.5 11.5t4.5 10.5zM471 37q-76 13 -118 13h-74q5 77 37 128t69 48q38 0 63.5 -55.5t22.5 -133.5v0zM820 137q-11 -12 0 -23t22.5 0t22.5 0q3 -3 9.5 -3t12.5 6q13 13 -3 23q-12 10 -26 10.5
t-23 -3.5t-15 -10zM670 137q-10 -10 -3 -23q6 -6 12.5 -6t9.5 3q11 11 22.5 0t22.5 0t0 22q-6 8 -15.5 13t-23 3.5t-25.5 -12.5zM804 -4q-5 -7 -13 -7t-15 3.5l-7 3.5q-10 9 -22 -3q-10 -10 3 -23q24 -16 41 -16q23 0 39 16q11 11 0 23q-5 6 -13 7t-13 -4zM807 341h-6
q-29 0 -66 -10t-59 -25q-112 -80 -112 -201q0 -96 67.5 -163.5t163.5 -67.5t163 67.5t67 163.5q-7 108 -67 171t-151 65zM993 111q-18 5 -52 33t-57 60q-16 20 -38 32t-34.5 14.5t-36.5 4.5q-28 3 -41.5 9t-22.5 26q52 19 90 19h3q79 -2 129 -55.5t60 -142.5zM798 -94
q-82 0 -140.5 58.5t-58.5 140.5q0 100 87 166q8 -16 18 -26.5t24 -15t22.5 -6.5t24.5 -3q21 -2 32.5 -4.5t27 -11t27.5 -23.5q24 -30 64.5 -65.5t69.5 -39.5q-12 -73 -68 -121.5t-130 -48.5v0z" />
    <glyph glyph-name="gongzhonghao" unicode="&#xe629;" horiz-adv-x="1161" 
d="M885 -128q-114 0 -194.5 80t-80.5 193.5t80.5 193.5t194.5 80t194.5 -80t80.5 -193.5t-80.5 -193.5t-194.5 -80zM1058 297l-258 -238l-104 104l-56 -55l158 -157l314 289zM573 145q0 -115 76 -202h-629q-8 0 -14 5.5t-6 13.5v915q0 8 6 13.5t14 5.5h877q8 0 13.5 -5.5
t5.5 -13.5v-423q-15 2 -31 2q-129 0 -220.5 -91t-91.5 -220zM73 80h448v57h-448v-57zM73 235h472v57h-472v-57zM73 373h549v37h-549v-37zM308 750h-235v-36h235v36zM308 633h-235v-36h235v36zM308 516h-235v-37h235v37zM840 761h-460v-293h460v293z" />
    <glyph glyph-name="mili_riji" unicode="&#xe66c;" 
d="M895 65v588h-102v71q0 11 -6.5 18.5t-17.5 7.5h-51q-10 0 -18.5 -8t-8.5 -18v-71h-51v71q0 11 -7 18.5t-17 7.5h-51q-10 0 -18.5 -8t-8.5 -18v-71h-51v71q0 11 -7 18.5t-17 7.5h-51q-11 0 -19 -8t-8 -18v-71h-51v71q0 11 -7 18.5t-17 7.5h-51q-11 0 -19 -8t-8 -18v-71
h-102v-588q0 -20 15.5 -33.5t36.5 -13.5h664q21 0 35 13.5t14 33.5v0v0zM181 506v98h51v-26q0 -10 8 -16.5t19 -6.5h51q10 0 17 6.5t7 16.5v26h51v-26q0 -10 8 -16.5t19 -6.5h51q11 0 17.5 6.5t6.5 16.5v26h51v-26q0 -10 8 -16.5t19 -6.5h51q11 0 17.5 6.5t6.5 16.5v26h51
v-26q0 -10 8 -16.5t19 -6.5h51q11 0 17.5 6.5t6.5 16.5v26h51v-98h-663z" />
    <glyph glyph-name="gexingzhuangban" unicode="&#xe655;" 
d="M705 264l299 38l-191 234l56 298l-281 -111l-264 147l18 -303l-220 -208l292 -77l128 -274l163 256v0zM550 116l-99 212l-225 58l169 161l-14 233l204 -113l217 86l-44 -230l148 -181l-231 -29l-125 -197v0zM312 227l37 -37l-292 -292l-37 38z" />
    <glyph glyph-name="jingcaikandian" unicode="&#xe641;" 
d="M553 582q20 0 34.5 14t14.5 34.5t-14.5 34.5t-34.5 14t-34.5 -14t-14.5 -34.5t14.5 -34.5t34.5 -14zM343 374q11 0 19.5 8t8.5 19.5t-8.5 20t-19.5 8.5t-19.5 -8.5t-8.5 -20t8.5 -19.5t19.5 -8zM656 128h-493q-12 0 -20 -8.5t-8 -20t8 -20t20 -8.5h493q11 0 19.5 8.5
t8.5 20t-8.5 20t-19.5 8.5zM943 433q-5 0 -10 -3h-2l-165 -66v61q0 36 -25 62t-61 28q45 49 45 116q0 71 -50.5 121.5t-121.5 50.5q-43 0 -81.5 -21t-62.5 -57q-24 36 -62 57t-82 21q-71 0 -121.5 -50.5t-50.5 -121.5q0 -67 45 -116q-36 -2 -61 -28t-25 -62v-370
q0 -37 26.5 -63.5t63.5 -26.5h534q38 0 64 26.5t26 63.5v61l165 -66h2q5 -2 10 -2q12 0 20.5 8t8.5 20v329q0 11 -8.5 19.5t-20.5 8.5zM553 746q48 0 82 -34t34 -81.5t-34 -81.5t-82 -34t-81.5 34t-33.5 81.5t33.5 81.5t81.5 34zM409 536q8 -11 17 -21h-33q9 10 16 21z
M265.5 746q47.5 0 81.5 -34t34 -81.5t-34 -81.5t-81.5 -34t-81.5 34t-34 81.5t34 81.5t81.5 34zM710 55q0 -14 -10 -23.5t-24 -9.5h-534q-14 0 -23.5 9.5t-9.5 23.5v370q0 14 9.5 23.5t23.5 9.5h534q14 0 24 -9.5t10 -23.5v-370zM915 117l-149 60v126l149 60v-246z
M265.5 582q20.5 0 34.5 14t14 34.5t-14 34.5t-34.5 14t-34.5 -14t-14 -34.5t14 -34.5t34.5 -14zM203.5 294q28.5 0 49 20.5t20.5 49t-20.5 49t-49 20.5t-48.5 -20.5t-20 -49t20 -49t48.5 -20.5zM204 402q16 0 27 -11.5t11 -27t-11 -27t-27 -11.5t-27.5 11.5t-11.5 27
t11.5 27t27.5 11.5z" />
    <glyph glyph-name="22" unicode="&#xe501;" horiz-adv-x="1025" 
d="M333 579q14 15 50 88t72 133t60 61q14 0 32 -20.5t37 -56t34 -68t32.5 -72.5t24.5 -54q20 -21 62 -33t86.5 -16.5t87 -9.5t70 -17.5t27.5 -35.5q0 -22 -31 -55.5t-69.5 -63t-74.5 -61t-43 -48.5q-3 -7 -3.5 -16.5t0.5 -16t3.5 -18t2.5 -16.5q2 -7 10 -40.5t14 -64.5
t10 -66.5t-1 -59.5t-20 -31q-28 -11 -68.5 2.5t-75 37t-77.5 48t-72 30.5q-27 5 -62.5 -10t-67 -38.5t-68 -46.5t-64 -32.5t-55.5 3.5q-19 11 -19 44t12.5 73t24.5 85.5t18 81.5t-8 60q-10 17 -48.5 49t-75.5 60t-63 61.5t-19 58.5q8 31 53.5 45t96 15t100.5 7.5t65 23.5z
M770 623q30 -9 69.5 -18t85 -14.5t58.5 6.5q10 9 6 19.5t-18.5 26t-30 29.5t-28.5 28.5t-14 24.5q-1 4 -1 30t-4 45.5t-13 23.5q-39 16 -111 -33q-16 -12 -34.5 -6.5t-32.5 17.5t-32 16.5t-32 -9.5q-12 -10 13 -53t62 -84.5t57 -48.5z" />
  </font>
</defs>
</svg>
